# xmcd
#
# Track frame offsets: 
#        150
#        31965
#        47447
#        76171
#        103617
#
# Disc length: 2044 seconds
#
# Revision: 2
# Processed by: cddbd v1.5.2PL0 Copyright (c) Steve Scherf et al.
# Submitted via: ExactAudioCopy v0.99pb4
#
DISCID=2d07fa05
DTITLE=Grant Green - Goin' West (Japan mini-LP)
DYEAR=1962
DGENRE=Jazz
TTITLE0=On The Top Of Old Smokey
TTITLE1=I Can't Stop Loving You
TTITLE2=Wagon Wheels
TTITLE3=Red River Valley
TTITLE4=Tumbling Tumbleweeds
EXTD=YEAR: 2003
EXTT0=
EXTT1=
EXTT2=
EXTT3=
EXTT4=
PLAYORDER=
